<svg xmlns="http://www.w3.org/2000/svg" width="48" height="48" fill="none" id="illustrator"><path fill="#F37021" d="M0 24C0 10.745 10.745 0 24 0s24 10.745 24 24-10.745 24-24 24S0 37.255 0 24Z"></path><path fill="url(#a)" d="M2.4 24C2.4 12.07 12.07 2.4 24 2.4c11.93 0 21.6 9.67 21.6 21.6 0 11.93-9.67 21.6-21.6 21.6-11.93 0-21.6-9.67-21.6-21.6Z"></path><path fill="#FF7F18" fill-rule="evenodd" d="M29.748 15.08c0-1.212.838-1.926 1.926-1.926 1.15 0 1.926.776 1.926 1.926 0 1.242-.808 1.926-1.957 1.926-1.119 0-1.895-.684-1.895-1.926ZM14.535 34.25l1.49-5.646H22.054l1.553 5.676c.031.124.125.16.28.16h3.107c.155 0 .186-.093.155-.248L21.152 13.87c-.031-.156-.093-.187-.218-.187H16.99c-.093 0-.155.062-.155.187-.031.932-.094 1.226-.187 1.568L11.304 34.16c-.031.218 0 .28.186.28h2.765c.186 0 .249-.037.28-.192Zm6.147-10.99c.233.89.443 1.688.594 2.284h-4.442l.05-.19c.769-2.89 1.73-6.501 2.125-8.66h.03c.333 1.575 1.061 4.35 1.643 6.566Zm9.494-4.118c-.155 0-.217.063-.217.218v14.832c0 .155.062.249.248.249h2.923c.187 0 .218-.063.218-.218V19.36c0-.155-.062-.218-.218-.218h-2.954Z" clip-rule="evenodd"></path><defs><radialGradient id="a" cx="0" cy="0" r="1" gradientTransform="translate(19.623 16.79) scale(28.1648)" gradientUnits="userSpaceOnUse"><stop stop-color="#1C0A00" stop-opacity=".85"></stop><stop offset=".767" stop-color="#1C0A00"></stop></radialGradient></defs></svg>